<?xml version="1.0" encoding="UTF-8"?><svg id="Layer_1" xmlns="http://www.w3.org/2000/svg" viewBox="0 0 1040.7 399"><defs><style>.cls-1{fill:#ec1c24;}.cls-2{fill:#fff;}</style></defs><path class="cls-2" d="M151.4,60h-37.8v38h37.8V60Zm641.9,73h-223.7v.6c-9.1,0-15.9,.3-22.8,.2v-.8h-85.3c-1.1,0-2,0-2.8,0H246.3c-80.7,0-161.4,.3-242.1,.3-1.4,0-.7,.4-4.2,.5v37.9c0,0,2-.7,3.1-.7H148.1v29.8s-2.3,0-3.4,0c-22.6,0-45.3-.1-67.9,.2-13.1,.2-26,2-38.1,7.7-24.4,11.4-23,45.5-2.3,57.9,9.9,5.9,20.7,8.6,31.9,10,16.8,2.1,33.6,1.1,50.5,.8,13.4-.3,26.9-1.3,40.2,1.5,3.6,.7,7.1,1.9,10.4,3.5,5,2.3,7.3,6.3,6.9,12-.7,9.9-6.3,16-15.3,19.6-8.5,3.5-17.6,4.4-26.7,4.4-14.8,0-29.5-.4-44.3-1-11-.4-20.9-3.9-29.6-10.7-3.1-2.4-6.4-4.6-9.7-6.8-.7-.5-2-.9-2.7-.5-13.5,6.6-27,13.3-40.8,20.1,3.4,6.3,8.2,11,14.1,14.6,9.8,6,20.6,8.7,31.9,9.9,7,.7,14.2,.8,21.2,1.2,12.1,.6,21.9,5.6,30.4,13.6,12.2,11.5,20.5,26.3,27.4,40.2h52.9c-10.1-23.2-24.3-41.4-46.6-54.1,1.3-.2,2.5,0,3.7,0,10.1-.7,20.2-.9,30.3-2.2,13.2-1.8,25.8-5.8,37-13.2,16.9-11.2,22.4-28,18.5-45.9-4-18.1-22.3-31.5-42.5-31.5-31.1,0-62.2,0-93.3,0-3.3,0-6.7-.4-9.8-1.2-5.1-1.4-7.7-5.5-7.6-11.1,0-5.8,2.7-9.7,8.1-11.1,3.1-.8,6.4-2.5,9.5-2.5,33.6,0,67.3-1.5,100.9-1.5h4.6v-53.6h52.4v190h47.8V171h170.9v24.6h-3.7c-11.7,0-23.3,1.5-35,1.7-12.5,.1-25,.9-37.5,1.7-12.2,.8-23.8,4.9-34.1,11.6-8.8,5.7-14.5,13.6-15,24.2-.9,16.7,6.9,29.3,22.8,36.5,12.7,5.8,26.2,8,40,8.6,13.9,.5,27.8,.4,41.8,.6,9.5,.1,18.9,.2,28.4,.8,6,.3,12,1.5,17.4,4.5,4.8,2.7,6.3,6.7,4.5,11.8-1.8,5.1-5.9,8.1-10.5,10.4-11.7,5.7-24.2,7.9-37.1,8.4-19,.7-37.6-1.6-55.9-6.7-11.6-3.3-23.1-6.8-30.7-17.1,0-.1-.3-.1-.7-.3-12,7.6-24.2,15.3-36.4,22.9,5,6.7,15,14,24.7,18.4,16.1,7.2,33.2,10.2,50.6,11.6,27,2.2,54.1,2.5,81.1-1,14.6-1.9,28.9-4.9,42.1-11.7,13.9-7.1,23.6-17.4,25.5-33.3,2.1-17.3-3.8-32.1-21-40.4-4.9-2.4-10.2-4.1-15.5-5.4-14.9-3.6-30-3.4-45.2-2.8-14.4,.6-28.7,1.6-43.1,2-7.7,.2-15.6-.4-22.8-3.7-5-2.3-7.1-5.4-6.8-9.9,.3-4.9,2.9-8.4,8-9.6,4.3-1,8.8-3.1,13.2-3.1,31.6-.1,63.3-1.5,95-1.5h3.6v-53.6h3.9c20.9,0,41.9,.7,62.8,0,7.3-.2,12.3,2.4,16.6,7.5,.2,.2,.4,.5,.6,.7,5.6,6.5,8.1,14,7.2,22.5-1.1,9.8-7.6,15.1-16.5,17.8-11.3,3.5-23,3.5-34.6,2-4.8-.6-9.7-1.4-14.7-2.1,0,.8,0,1.4,0,1.9,1.7,11,4.2,21.7,8.3,32.1,7.5,19,19.1,34.8,37.5,45.1,16.8,9.4,35.1,12.3,54.1,12.2,20.3-.1,41.2-5.3,59.3-14.2,1.6-.8,2.4-1.5,6.9-2.5v33.5h52.4V171h43.3v156.5h47.8V171h92.4l20.4-38h-171.7Zm-84.7,41.7c0,23.5-1.8,47-1.8,70.5,0,1.1-1,2.6-1.7,3.4-11,13.2-24.7,23.3-41.9,27.2-13.9,3.2-27.9,2.9-41.1-3-9-4-15.7-10.7-20.5-19.1-.2-.3-.3-.7-.4-1,6-.6,11.8-1,17.5-1.7,8-1.1,15.7-3.3,22.8-7.2,12.8-7.1,19-18.6,20.2-32.7,1.3-15.2-3.9-31.1-14.4-40h61.2s0,2.7,0,3.7ZM408.2,0h-18.1V37.7h0v57.3c-4.3,.2-6-.8-8.9-2.5-4.3-2.5-6.7-6.3-8.9-10.4-8.5-15.9-16.8-31.8-25.5-47.6-6.7-12.3-16.3-22-29.9-28-8.4-3.7-17.2-4.9-26.3-5.1-5.7-.1-11.3-.7-16.9-.9-.5,0-.9-.7-1.4-.7h-26.3c0,20.2,.1,37.5,.1,56.1,0,24.5,.1,49.5,.1,74.1v2.8h47.2V39.5c4.3-.5,6.6,.5,10,2.9,3.9,2.7,5.8,6.3,7.9,10.2,8.5,15.8,16.5,31.6,25.1,47.3,6.1,11.2,14.3,21.3,26.3,27.5,4.6,2.3,9.2,3.7,14.3,5.7h58.1V0h-27ZM989.6,0c-4.3,10-8.6,14.9-12.9,22.2-14.8,24.7-29.6,49.5-44.5,74.2-.3,.5-.7,1.2-1.2,1.9-.4-.5-.7-.8-1-1.2-20.5-31.9-41-64.1-61.4-96-.1-.2-.2-1-.4-1H454.1V132.2h157.4c.5,0,1-.9,1.5-1,11.7-2.6,21.9-7.6,29.7-15.9,8.6-9.2,12.4-20.2,13.4-31.8,.8-9.1,.7-18.4,.8-27.6,0-3.7-.4-6.7-1-10.4-.7-4.1-1.9-7.5-2.8-11.5h71.5v98.1h46.2V34h3.9c19.9,0,39.8-.7,59.7-.8,2,0,3,.2,3.9,1.7,20.9,32.2,41.8,64.2,62.6,96.5,.8,1.3,1.7,1.6,3.3,1.6,18.1,0,36.1-.1,54.2,0,1.8,0,2.7-.5,3.6-1.9,24.5-40.4,49.1-81.3,73.6-121.7,1.8-2.9,3.5-5.4,5.2-9.4-17,0-34,0-51.1,0Zm-381,84.1c-.5,10.1-7.8,16.4-19.3,17.6-2.3,.2-4.7-.6-7-.6-25.1,0-50.1-.9-75.2-.9h-2.1V34h1.8c25.3,0,50.7-.8,76-.7,3.9,0,8,.2,11.8,1.1,8.5,2.1,13.5,7.6,14.1,15.2,.3,3.4,.2,6.7,.2,10.1,0,8.1,.2,16.1-.2,24.2Z"/><ellipse class="cls-1" cx="444.7" cy="66.5" rx="28.5" ry="28.5"/></svg>